<svg xmlns="http://www.w3.org/2000/svg" xmlns:xlink="http://www.w3.org/1999/xlink" id="图层_1" width="37" height="33.583" x="0" y="0" enable-background="new -2.833 1.732 37 33.583" version="1.1" viewBox="-2.833 1.732 37 33.583" xml:space="preserve"><circle cx="15.66" cy="19.704" r="3.959" fill="none" stroke="#000" stroke-miterlimit="10" stroke-width=".5"/><path fill="none" stroke="#000" stroke-miterlimit="10" stroke-width=".5" d="M15.553,2.789c0,0,1.738,1.744,1.658,5.39v7.883"/><path fill="none" stroke="#000" stroke-miterlimit="10" stroke-width=".5" d="M15.626,2.869c0,0-1.663,1.664-1.583,5.311v7.883"/><polyline fill="none" stroke="#000" stroke-miterlimit="10" stroke-width=".5" points="17.211 11.932 32.943 20.345 33.609 21.303 33.128 22.394 23.307 19.492 19.619 18.979"/><polyline fill="none" stroke="#000" stroke-miterlimit="10" stroke-width=".5" points="14.043 11.952 -1.588 20.297 -2.305 21.215 -1.805 22.373 7.916 19.538 11.701 19.079"/><line x1="12.133" x2="19.15" y1="21.502" y2="17.834" fill="none" stroke="#000" stroke-miterlimit="10" stroke-width=".5"/><line x1="17.005" x2="14.042" y1="23.43" y2="16.184" fill="none" stroke="#000" stroke-miterlimit="10" stroke-width=".5"/><path fill="none" stroke="#000" stroke-miterlimit="10" stroke-width=".5" d="M17.211,23.43c0,0,0.086,3.795-0.572,5.893"/><path fill="none" stroke="#000" stroke-miterlimit="10" stroke-width=".5" d="M14.543,29.44c0,0-0.665-3.702-0.502-6.123"/><path fill="none" stroke="#000" stroke-miterlimit="10" stroke-width=".5" d="M15.242,32.336l-5.471,1.757	c0,0-0.119-1.198,0.479-1.757l4.991-3.334l0.418-5.338l0.32,5.258l5.05,3.295c0,0,0.759,0.379,0.539,1.876l-5.589-1.798	l-0.339,1.697L15.242,32.336z"/><line x1="15.98" x2="15.98" y1="32.295" y2="28.922" fill="none" stroke="#000" stroke-miterlimit="10" stroke-width=".5"/><line x1="15.242" x2="15.242" y1="32.336" y2="29" fill="none" stroke="#000" stroke-miterlimit="10" stroke-width=".5"/><polyline fill="none" stroke="#000" stroke-miterlimit="10" stroke-width=".5" points="23.447 15.266 23.447 12.092 22.388 12.092 22.388 14.63"/><polyline fill="none" stroke="#000" stroke-miterlimit="10" stroke-width=".5" points="20.492 13.679 20.492 10.505 19.433 10.505 19.433 13.043"/><polyline fill="none" stroke="#000" stroke-miterlimit="10" stroke-width=".5" points="11.869 13.114 11.869 10.505 10.809 10.505 10.808 13.679"/><polyline fill="none" stroke="#000" stroke-miterlimit="10" stroke-width=".5" points="8.855 14.701 8.855 12.092 7.796 12.092 7.795 15.266"/></svg>